<svg width="118" height="105" viewBox="0 0 118 105" fill="none" xmlns="http://www.w3.org/2000/svg">
<path d="M118 40.0924C118 20.8108 105.646 0 85.6881 0C71.6739 0 63.179 8.26038 59 13.9295C54.821 8.25901 46.3261 0 32.3119 0C12.3541 0 0 20.8108 0 40.0924C0 62.8795 18.3973 81.9026 38.278 99.0671C38.9289 99.6302 39.7042 99.9022 40.4733 99.9022C41.5274 99.9022 42.5702 99.3897 43.2721 98.4097C44.4855 96.715 44.218 94.2591 42.6735 92.9265C24.2041 76.9811 7.11351 59.5447 7.11351 40.0924C7.11351 27.0745 15.1218 7.8121 32.3119 7.8121C48.7143 7.8121 55.5453 22.0368 55.8203 22.6286C56.4214 23.9433 57.6485 24.7675 58.9876 24.7743C58.9925 24.7743 58.9975 24.7743 59.0037 24.7743C60.3378 24.7743 61.5624 23.9474 62.1722 22.6436C62.4547 22.0382 69.2869 7.81347 85.6893 7.81347C102.879 7.81347 110.888 27.0758 110.888 40.0937C110.888 55.2778 100.84 70.5754 77.3152 91.1963C70.911 96.4389 64.9487 98.3769 60.9775 96.3897C57.3374 94.5666 55.2491 89.3034 55.2491 81.9478V65.632C55.2491 63.4753 53.6562 61.7259 51.6924 61.7259H40.3924V53.4874H51.6924C53.6562 53.4874 55.2491 51.7381 55.2491 49.5814V37.1703H62.7521V49.5814C62.7521 51.7381 64.3438 53.4874 66.3089 53.4874H77.6088V61.7259H66.3089C64.3451 61.7259 62.7521 63.4753 62.7521 65.632V81.9478C62.7521 84.1044 64.3438 85.8538 66.3089 85.8538C68.2727 85.8538 69.8656 84.1044 69.8656 81.9478V69.5367H81.1656C83.1294 69.5367 84.7224 67.7873 84.7224 65.6306V49.58C84.7224 47.4234 83.1294 45.674 81.1656 45.674H69.8656V33.2629C69.8656 31.1062 68.2727 29.3569 66.3089 29.3569H51.6924C49.7286 29.3569 48.1356 31.1062 48.1356 33.2629V45.674H36.8356C34.8718 45.674 33.2789 47.4234 33.2789 49.58V65.6306C33.2789 67.7873 34.8718 69.5367 36.8356 69.5367H48.1356V81.9478C48.1356 92.4946 51.7409 100.349 58.0256 103.497C60.0342 104.503 62.2008 105 64.4907 105C69.6155 105 75.3588 102.503 81.3224 97.658C81.3647 97.6252 81.4108 97.6034 81.4518 97.5665C81.5302 97.4981 81.6086 97.4284 81.687 97.3587C82.659 96.5551 83.6359 95.6927 84.6178 94.7647C102.343 78.8932 118 61.2667 118 40.0924Z" fill="url(#paint0_linear_1_328)"/>
<defs>
<linearGradient id="paint0_linear_1_328" x1="0.000995591" y1="52.4993" x2="118.001" y2="52.4993" gradientUnits="userSpaceOnUse">
<stop stop-color="#407CE2"/>
<stop offset="0.9997" stop-color="#223A6A"/>
</linearGradient>
</defs>
</svg>
